<svg xmlns="http://www.w3.org/2000/svg" xmlns:xlink="http://www.w3.org/1999/xlink" xml:space="preserve" width="450px" height="300px" style="shape-rendering:geometricPrecision; text-rendering:geometricPrecision; image-rendering:optimizeQuality; fill-rule:evenodd; clip-rule:evenodd" viewBox="0 0 450 300">
 <defs>
  
 </defs>
 


  
  <path xmlns="http://www.w3.org/2000/svg" d="M220.22 210.159l-0.756 -0.57465 -0.54405 -0.7866 -0.3147 -0.9381 -0.0726 -1.04535 0.1773 -1.11075 0.43935 -1.14405 0.2874 -0.4587 -15.918 -44.419 -1.3428 0.22395 -0.78795 0.14145 -0.81075 0.15135 -0.83265 0.1626 -0.8475 0.16935 -0.85995 0.17595 -0.86805 0.1788 -0.87405 0.18195 -0.8727 0.18 -0.87 0.1806 -0.8634 0.17535 -0.8541 0.17205 -0.8394 0.16275 -0.822 0.15525 -0.8013 0.14265 -0.32535 0.05535 0.846 1.0314 0.276 0.4047 0.204 0.4674 0.1161 0.48795 0.024 0.49935 -0.06675 0.49335 -0.16335 0.4773 -0.258 0.4434 -0.35535 0.3921 -0.4266 0.3093 -0.4701 0.21195 -0.492 0.11205 -0.504 0.01665 -0.1014 -0.01665 0.7707 0.8601 1.2048 1.33665 1.2126 1.34265 1.2228 1.34685 0.9573 1.05195 0.34815 -0.09465 0.0006 0.0027 0.37275 -0.10005 0.58065 -0.15735 0.5874 -0.16125 0.5913 -0.16605 0.5967 -0.17205 0.60075 -0.17805 0.60525 -0.18465 0.60735 -0.192 0.61275 -0.2013 0.61605 -0.21 0.6174 -0.22005 0.61995 -0.22995 0.6234 -0.2421 0.6234 -0.25335 0.62535 -0.2673 0.6579 -0.29325 0.75405 -0.25935 0.80475 -0.0228 0.744 0.2307 0.61545 0.468 0.432 0.6594 0.21135 0.79875 -0.02475 0.8907 -0.2859 1.0134 -0.5748 0.7326 -0.53265 0.6147 -0.5547 0.58545 -0.5754 0.5619 -0.58935 0.54015 -0.60195 0.5226 -0.6108 0.50805 -0.09795 0.07935 0.3861 0.2346 0.6393 0.3474 0.71475 0.3507 0.7899 0.3534 0.8661 0.3546 0.9387 0.35595 1.014 0.35745 1.11675 0.3687 0.6774 0.28395 0.57075 0.408 0.414 0.5247 0.18 0.6534 -0.16545 0.67605 -0.4833 0.51735 -0.67335 0.318 -0.822 0.1566 -6.8904 0.396 0.14145 0.1314 0.59805 0.55335 0.19995 1.00875 -0.16065 0.82605 -0.474 0.6519 -0.6774 0.4128 -0.78405 0.1839 -0.84405 -0.01995 -0.8727 -0.21795 -0.88335 -0.4248 -1.54605 -1.29795 -1.4808 -1.24215 -0.2166 -0.18195 -3.53955 -0.14535 -0.58395 -0.024 -0.58545 -0.024 -0.58335 -0.024 -0.58605 -0.02325 -1.75275 -0.07215 -0.58605 -0.024 -0.58395 -0.024 -0.58605 -0.024 -0.58335 -0.024 -0.60135 -0.02325 -1.1127 -0.09795 -0.8667 -0.20145 -0.69735 -0.39195 -0.34065 -0.7647 0.33255 -0.738 0.57015 -0.50745 0.75465 -0.44265 0.948 -0.42135 0.56535 -0.2253 0.54945 -0.216 0.54735 -0.2154 0.546 -0.21405 0.54795 -0.21525 0.5481 -0.21735 0.552 -0.2214 0.3867 -0.156 -0.4161 -0.35205 -1.4673 -1.2426 -1.4628 -1.2435 -1.45995 -1.2426 -1.4568 -1.24215 -1.4541 -1.2426 -1.4487 -1.24275 -1.446 -1.24275 -1.44075 -1.24275 -1.43745 -1.24335 -1.43145 -1.2447 -1.42605 -1.24275 -1.422 -1.24275 -1.3728 -1.2033 0.02205 0.11265 0.0054 0.498 -0.09345 0.4953 -0.19395 0.47475 -0.29805 0.4347 -0.37995 0.36135 -0.438 0.2694 -0.474 0.17265 -0.4974 0.078 -0.5034 -0.01935 -0.49665 -0.11535 -0.47265 -0.21465 -0.4074 -0.29265 -3.12075 -2.76825 -2.5062 -0.6579 -1.2273 -0.318 -1.22745 -0.3147 -1.23 -0.31065 -1.2315 -0.31005 -1.2333 -0.306 -1.23345 -0.30405 -1.23675 -0.2994 -1.236 -0.29925 -1.2387 -0.29475 -1.23945 -0.29265 -1.2414 -0.28935 -1.2426 -0.28875 -1.24275 -0.28395 -1.2447 -0.28335 -1.2474 -0.2793 -1.24605 -0.2793 -1.24875 -0.2748 -1.24875 -0.27465 -1.2507 -0.2706 -1.2507 -0.2694 -1.2528 -0.2667 -1.25475 -0.2646 -1.25535 -0.2628 -1.25535 -0.2613 -1.2567 -0.2586 -1.25805 -0.2574 -1.2594 -0.2547 -1.2588 -0.2526 -1.2606 -0.2514 -1.26285 -0.2493 -1.37595 -0.2694 -0.88815 -0.52395 -0.7386 -0.47475 -0.6768 -0.47535 -0.62325 -0.4767 -0.5694 -0.48 -0.52065 -0.48075 -0.4734 -0.48195 -0.43275 -0.48135 -0.39195 -0.4833 -0.3567 -0.48345 -0.3246 -0.48135 -0.2967 -0.48195 -0.27075 -0.47865 -0.25005 -0.47745 -0.23265 -0.47325 -0.672 -1.44015 1.95075 0.04605 0.88275 0.0213 0.88935 0.0234 0.89475 0.02325 0.90135 0.0267 0.9033 0.0267 0.9087 0.0279 0.91275 0.0288 0.91665 0.0306 0.9195 0.03 0.9219 0.03195 0.9234 0.03075 0.9261 0.0333 0.92535 0.03195 0.92805 0.0321 0.92865 0.03195 0.9294 0.03405 0.92745 0.03195 0.9267 0.0327 1.84875 0.06405 0.91995 0.0306 0.91875 0.03 0.9147 0.0294 0.912 0.02925 0.9075 0.0273 0.9033 0.0267 0.89805 0.02535 0.894 0.02475 0.88605 0.02265 0.8814 0.0213 0.26595 0.006 -0.072 -0.0594 -0.3699 -0.4527 -0.2667 -0.50595 -0.15945 -0.53805 -0.054 -0.5553 0.054 -0.5541 0.15945 -0.53865 0.2667 -0.50535 0.3699 -0.4554 0.4554 -0.3699 0.50535 -0.2667 0.53865 -0.15945 0.5541 -0.054 0.5553 0.054 0.53805 0.15945 0.5061 0.2667 0.45255 0.3699 0.37275 0.45405 0.2574 0.49005 0.40935 0.2307 0.0633 0.03735 0.0687 0.04335 0.0666 0.0453 0.0654 0.04725 0.0687 0.05265 0.06 0.05145 0.04725 0.04125 -0.4746 -0.582 -0.7767 -0.98265 -0.7521 -0.98535 -0.7221 -0.98475 -0.6939 -0.98745 -0.6627 -0.98595 -0.63135 -0.99 -0.5955 -0.9894 -0.56055 -0.9927 -0.52215 -0.9927 -0.5139 -1.0587 -0.2388 -1.1241 -0.216 -0.9894 -0.1707 -0.94395 -0.0813 -0.90675 0.07065 -0.8721 0.3027 -0.822 0.5967 -0.6906 0.9207 -0.5214 0.96675 -0.0813 0.8793 0.0372 0.8874 0.1608 0.87945 0.29535 0.858 0.44265 0.8193 0.5973 0.7674 0.7581 0.504 0.66405 0.306 0.0366 0.59145 0.0807 0.59265 0.0933 0.5934 0.10875 0.5934 0.1293 0.5919 0.14925 0.5901 0.17535 0.588 0.20145 0.58665 0.23325 0.58215 0.2661 0.5766 0.30195 0.57075 0.34005 0.5646 0.38205 0.55605 0.42465 0.54675 0.4713 0.5466 0.5274 1.10745 1.3053 1.0854 1.27815 1.086 1.27995 1.0854 1.27815 2.17605 2.55945 1.3134 1.5447 1.96215 2.3007 0.8754 1.0254 -0.02475 -0.0786 0.5901 -0.006 -0.0393 -0.02805 -0.3954 -0.432 -0.2934 -0.50205 -0.18135 -0.5394 -0.06855 -0.5553 0.03795 -0.5574 0.144 -0.53925 0.24195 -0.5088 0.3414 -0.4626 0.4347 -0.4014 0.50535 -0.30795 0.5373 -0.19935 0.55545 -0.09075 0.5559 0.0147 0.5421 0.1227 0.51075 0.22665 0.462 0.33135 0.39195 0.4293 0.2967 0.504 0.18135 0.5394 0.0693 0.5574 -0.0126 0.17595 0.6054 -0.0867 0.3759 -0.0246 0.3441 0.0126 0.3186 0.04935 0.29535 0.09405 0.26475 0.1374 0.22935 0.1839 0.1866 0.22605 0.216 0.43065 0.11145 0.46605 0.02865 0.46875 -0.04005 0.4599 -0.09405 0.44745 -0.1446 0.4233 -0.12735 0.25935 0.92595 1.12875 1.44285 -0.00075 1.2606 -0.00525 1.27485 -0.00675 1.2846 -0.01065 1.2948 -0.01065 1.29945 -0.0126 1.30395 -0.0141 1.3068 -0.01395 1.308 -0.01335 1.3041 -0.01395 1.302 -0.012 1.29405 -0.012 1.2867 -0.0087 1.2768 -0.00795 2.77215 -0.0054 -0.7014 -2.9688 -13.064 -36.4548 -0.3087 -0.58065 -0.3099 -0.64395 -0.2808 -0.6501 -0.25395 -0.65865 -0.22335 -0.6654 -0.19335 -0.67335 -0.1626 -0.67875 -0.1194 -0.61995 -0.2253 -0.62745 0.01065 -1.9386 -0.06465 0.0159 0.1767 -1.878 0.15135 -0.95475 0.21195 -0.94275 0.2694 -0.93135 0.3279 -0.9174 0.3828 -0.9033 0.438 -0.8874 0.4899 -0.87405 0.5448 -0.85665 0.59265 -0.84 0.64335 -0.82275 0.69 -0.80535 0.73875 -0.786 0.7821 -0.76875 0.82725 -0.74805 0.87015 -0.73065 0.91395 -0.7074 0.954 -0.6873 0.99405 -0.6654 1.0314 -0.6447 1.0707 -0.6207 1.1055 -0.59865 1.1427 -0.57465 1.176 -0.5514 1.2108 -0.5247 1.24125 -0.49995c14.2241,-5.30235 30.49,-5.4129 44.8287,-0.47475l1.27335 0.47475 1.2414 0.49995 1.2108 0.5247 1.176 0.5514 1.1427 0.57465 1.10535 0.59865 1.07085 0.6207 1.03125 0.6447 0.99405 0.6654 0.95415 0.6873 0.91395 0.7074 0.87 0.73065 0.8274 0.74805 0.7821 0.76875 0.73875 0.786 0.69 0.80535 0.64335 0.82275 0.59265 0.84 0.54465 0.85665 0.49005 0.87405 0.438 0.8874 0.3828 0.9033 0.3279 0.9174 0.2694 0.93135 0.21195 0.94275 0.15135 0.95475 0.1767 1.878 -0.06465 -0.0159 0.01065 1.9386 -0.2253 0.62745 -0.1194 0.61995 -0.1626 0.67875 -0.19335 0.67335 -0.22335 0.6654 -0.2541 0.65865 -0.28065 0.6501 -0.31005 0.64395 -0.30855 0.58065c-0.6768,1.8894 -8.3124,24.6398 -12.8392,37.9141l-0.3741 1.50945 2.77215 0.0054 1.2768 0.00795 1.2867 0.0087 1.29405 0.012 1.302 0.012 1.3041 0.01395 1.308 0.01335 1.3068 0.01395 1.30395 0.0141 1.29945 0.0126 1.2948 0.01065 1.2846 0.01065 1.27485 0.00675 1.2606 0.00525 1.44285 0.00075 0.92595 -1.12875 -0.12735 -0.25935 -0.1446 -0.4233 -0.09405 -0.44745 -0.04005 -0.4599 0.02865 -0.46875 0.11145 -0.46605 0.216 -0.43065 0.1866 -0.22605 0.22935 -0.1839 0.26475 -0.1374 0.29535 -0.09405 0.3186 -0.04935 0.3441 -0.0126 0.3759 0.0246 0.6054 0.0867 -0.0126 -0.17595 0.0693 -0.5574 0.18135 -0.5394 0.2967 -0.504 0.39195 -0.4293 0.462 -0.33135 0.51075 -0.22665 0.54195 -0.1227 0.55605 -0.0147 0.55545 0.09075 0.5373 0.19935 0.50535 0.30795 0.4347 0.4014 0.3414 0.4626 0.24195 0.5088 0.144 0.53925 0.03795 0.5574 -0.06855 0.5553 -0.18135 0.5394 -0.2934 0.50205 -0.3954 0.432 -0.0393 0.02805 0.5901 0.006 -0.02475 0.0786 0.8754 -1.0254 1.96215 -2.3007 1.3134 -1.5447 2.17605 -2.55945 1.0854 -1.27815 1.086 -1.27995 1.0854 -1.27815 1.10745 -1.3053 0.5466 -0.5274 0.54675 -0.4713 0.55605 -0.42465 0.5646 -0.38205 0.57075 -0.34005 0.5766 -0.30195 0.58215 -0.2661 0.58665 -0.23325 0.588 -0.20145 0.5901 -0.17535 0.5919 -0.14925 0.5934 -0.1293 0.5934 -0.10875 0.59265 -0.0933 0.59145 -0.0807 0.306 -0.0366 0.504 -0.66405 0.7674 -0.7581 0.8193 -0.5973 0.858 -0.44265 0.87945 -0.29535 0.8874 -0.1608 0.8793 -0.0372 0.96675 0.0813 0.9207 0.5214 0.5967 0.6906 0.3027 0.822 0.07065 0.8721 -0.0813 0.90675 -0.1707 0.94395 -0.216 0.9894 -0.2388 1.1241 -0.5139 1.0587 -0.52215 0.9927 -0.56055 0.9927 -0.5955 0.9894 -0.63135 0.99 -0.6627 0.98595 -0.6939 0.98745 -0.7221 0.98475 -0.7521 0.98535 -0.7767 0.98265 -0.4746 0.582 0.04725 -0.04125 0.06 -0.05145 0.0687 -0.05265 0.0654 -0.04725 0.0666 -0.0453 0.0687 -0.04335 0.0633 -0.03735 0.40935 -0.2307 0.2574 -0.49005 0.37275 -0.45405 0.45255 -0.3699 0.5061 -0.2667 0.53805 -0.15945 0.5553 -0.054 0.5541 0.054 0.53865 0.15945 0.50535 0.2667 0.4554 0.3699 0.3699 0.4554 0.2667 0.50535 0.15945 0.53865 0.054 0.5541 -0.054 0.5553 -0.15945 0.53805 -0.2667 0.50595 -0.3699 0.4527 -0.072 0.0594 0.26595 -0.006 0.8814 -0.0213 0.88605 -0.02265 0.894 -0.02475 0.89805 -0.02535 0.9033 -0.0267 0.9075 -0.0273 0.912 -0.02925 0.9147 -0.0294 0.91875 -0.03 0.91995 -0.0306 1.84875 -0.06405 0.9267 -0.0327 0.92745 -0.03195 0.9294 -0.03405 0.92865 -0.03195 0.92805 -0.0321 0.92535 -0.03195 0.9261 -0.0333 0.9234 -0.03075 0.9219 -0.03195 0.9195 -0.03 0.91665 -0.0306 0.91275 -0.0288 0.9087 -0.0279 0.9033 -0.0267 0.90135 -0.0267 0.89475 -0.02325 0.88935 -0.0234 0.88275 -0.0213 1.95075 -0.04605 -0.672 1.44015 -0.23265 0.47325 -0.25005 0.47745 -0.27075 0.47865 -0.2967 0.48195 -0.3246 0.48135 -0.3567 0.48345 -0.39195 0.4833 -0.43275 0.48135 -0.4734 0.48195 -0.52065 0.48075 -0.5694 0.48 -0.62325 0.4767 -0.6768 0.47535 -0.7386 0.47475 -0.88815 0.52395 -1.37595 0.2694 -1.26285 0.2493 -1.2606 0.2514 -1.2588 0.2526 -1.2594 0.2547 -1.25805 0.2574 -1.2567 0.2586 -1.25535 0.2613 -1.25535 0.2628 -1.25475 0.2646 -1.2528 0.2667 -1.2507 0.2694 -1.2507 0.2706 -1.24875 0.27465 -1.24875 0.2748 -1.24605 0.2793 -1.2474 0.2793 -1.2447 0.28335 -1.24275 0.28395 -1.2426 0.28875 -1.2414 0.28935 -1.23945 0.29265 -1.2387 0.29475 -1.236 0.29925 -1.23675 0.2994 -1.23345 0.30405 -1.2333 0.306 -1.2315 0.31005 -1.23 0.31065 -1.22745 0.3147 -1.2273 0.318 -2.5062 0.6579 -3.12075 2.76825 -0.4074 0.29265 -0.47265 0.21465 -0.49665 0.11535 -0.5034 0.01935 -0.4974 -0.078 -0.474 -0.17265 -0.438 -0.2694 -0.37995 -0.36135 -0.29805 -0.4347 -0.19395 -0.47475 -0.09345 -0.4953 0.0054 -0.498 0.02205 -0.11265 -1.3728 1.2033 -1.422 1.24275 -1.42605 1.24275 -1.43145 1.2447 -1.43745 1.24335 -1.44075 1.24275 -1.446 1.24275 -1.4487 1.24275 -1.4541 1.2426 -1.4568 1.24215 -1.45995 1.2426 -1.4628 1.2435 -1.4673 1.2426 -0.4161 0.35205 0.3867 0.156 0.552 0.2214 0.5481 0.21735 0.54795 0.21525 0.546 0.21405 0.54735 0.2154 0.54945 0.216 0.56535 0.2253 0.948 0.42135 0.75465 0.44265 0.57015 0.50745 0.33255 0.738 -0.34065 0.7647 -0.69735 0.39195 -0.8667 0.20145 -1.1127 0.09795 -0.60135 0.02325 -0.58335 0.024 -0.58605 0.024 -0.5841 0.024 -0.5859 0.024 -1.75275 0.07215 -0.58605 0.02325 -0.58335 0.024 -0.58545 0.024 -0.58395 0.024 -3.53955 0.14535 -0.2166 0.18195 -1.4808 1.24215 -1.54605 1.29795 -0.88335 0.4248 -0.8727 0.21795 -0.84405 0.01995 -0.78405 -0.1839 -0.6774 -0.4128 -0.474 -0.6519 -0.16065 -0.82605 0.19995 -1.00875 0.59805 -0.55335 0.14145 -0.1314 -6.8904 -0.396 -0.822 -0.1566 -0.67335 -0.318 -0.4833 -0.51735 -0.16545 -0.67605 0.18 -0.6534 0.414 -0.5247 0.57075 -0.408 0.6774 -0.28395 1.11675 -0.3687 1.014 -0.35745 0.9387 -0.35595 0.86595 -0.3546 0.79005 -0.3534 0.71475 -0.3507 0.6393 -0.3474 0.3861 -0.2346 -0.09795 -0.07935 -0.6108 -0.50805 -0.60195 -0.5226 -0.58935 -0.54015 -0.5754 -0.5619 -0.5547 -0.58545 -0.53265 -0.6147 -0.5748 -0.7326 -0.2859 -1.0134 -0.02475 -0.8907 0.21135 -0.79875 0.432 -0.6594 0.61545 -0.468 0.744 -0.2307 0.80475 0.0228 0.75405 0.25935 0.6579 0.29325 0.62535 0.2673 0.6234 0.25335 0.6234 0.2421 0.61995 0.22995 0.6174 0.22005 0.61605 0.21 0.61275 0.2013 0.60735 0.192 0.60525 0.18465 0.60075 0.17805 0.5967 0.17205 0.5913 0.16605 0.5874 0.16125 0.58065 0.15735 0.37275 0.10005 0.0006 -0.0027 0.34815 0.09465 0.9573 -1.05195 1.2228 -1.34685 1.2126 -1.34265 1.2048 -1.33665 0.7707 -0.8601 -0.1014 0.01665 -0.504 -0.01665 -0.492 -0.11205 -0.4701 -0.21195 -0.4266 -0.3093 -0.35535 -0.3921 -0.258 -0.4434 -0.16335 -0.4773 -0.06675 -0.49335 0.024 -0.49935 0.1161 -0.48795 0.204 -0.4674 0.276 -0.4047 0.846 -1.032 -0.3306 -0.0561 -0.8148 -0.14655 -0.8433 -0.1608 -0.86535 -0.16995 -0.88545 -0.18 -0.89865 -0.1854 -0.90945 -0.1893 -0.912 -0.19125 -0.912 -0.19275 -0.906 -0.1893 -0.8961 -0.18465 -0.8787 -0.17745 -0.85935 -0.16995 -0.83205 -0.15795 -0.8007 -0.144 -1.43475 -0.24075 -16.2493 45.3432 0.0399 0.0939 0.036 0.0621 0.0981 0.08865 0.23325 0.31665 0.19005 0.41265 0.14205 0.4614 0.09465 0.504 0.0294 0.5313 -0.0588 0.546 -0.19065 0.5427 -0.3933 0.49875 -0.3093 0.1407 -0.2814 0.126 -0.35475 0.1566 -0.3813 0.16935 -0.3627 0.162 -0.12795 0.0594 0.0087 0.228 -0.01335 0.32865 -0.03675 0.3174 -0.066 0.3033 -0.0927 0.2874 -0.1206 0.26925 -0.12 0.2034 -0.21465 0.4053 -0.08745 0.34065 -0.018 0.35805 0.0381 0.396 0.07395 0.43605 0.08535 0.48 0.05595 0.52335 -0.018 0.57135 -0.1926 0.77205 -0.31335 0.61065 -0.3513 0.46935 -0.31335 0.3834 -0.24135 0.35265 -0.16665 0.396 -0.0888 0.5394 0.03735 0.79875 0.0627 0.41595 0.084 0.42 0.10065 0.396 0.11865 0.3687 0.132 0.3294 0.1461 0.28605 0.1533 0.23535 0.29535 0.34395 0.1593 0.65865 0.03135 0.48675 -0.16065 0.4866 -0.36405 0.3108 -0.33195 0.1239 -0.2541 0.0741 -0.2346 0.08595 -0.30135 0.16275 -0.35265 0.18195 -0.46005 0.0927 -0.5187 -0.15675 -0.1473 -0.19935 -0.11805 0.0447 -0.4827 0.13065 -0.46605 0.0774 -0.4593 0.00795 -0.48135 -0.10725 -0.46935 -0.3714 -0.1293 -0.6141 0.1806 -0.54465 0.43065 -0.63135 0.05535 -0.0186 -0.01395 -0.05805 -0.126 -0.32535 -0.186 -0.39795 -0.22605 -0.44535 -0.2754 -0.52335 -0.3546 -1.12815 -0.30075 -0.91005 -0.234 -0.83925 -0.1119 -0.83205 0.0753 -0.8607 0.31065 -0.88815 0.5547 -0.93795 0.7494 -0.96135 0.21 -0.5001 0.15135 -0.55125 0.05925 -0.5181 -0.03795 -0.45 -0.13005 -0.36135 -0.222 -0.28335 -0.3627 -0.2307 -0.66465 -0.1833 -0.83475 -0.2721zm2.20155 -5.30745l-0.3021 0.2946 -0.25065 0.27 -0.10605 0.1554 -0.14865 0.47865 0.04065 0.4194 0.1881 0.38865 0.29535 0.3081 0.32325 0.16995 0.26745 0.02595 0.2166 -0.09135 0.294 -0.37395 0.0741 -0.132 -0.0528 -0.0954 -0.13995 -0.19335 -0.198 -0.2739 -0.21735 -0.35745 -0.19335 -0.4527 -0.0906 -0.4146 0 -0.126zm4.2954 -0.054l-0.0426 0.43935 -0.12195 0.4974 -0.16335 0.3786 -0.17475 0.26265 -0.08925 0.10875 0.066 0.2247 0.04995 0.2379 0.26205 -0.066 0.34335 -0.1659 0.32325 -0.21675 0.20535 -0.1893 0 0 -0.0126 -0.0507 -0.0933 -0.22395 -0.14145 -0.2961 -0.16935 -0.34665 -0.16935 -0.38595 -0.072 -0.20805zm35.061 -104.495l-0.0174 -0.06405 -0.0294 0.09675 0.0468 -0.0327zm-74.0913 -0.06405l-0.0174 0.06405 0.04665 0.0327 -0.02925 -0.09675z" style="&#10;    fill: dimgrey;&#10;"/>
   
  
 
</svg>